<?xml version="1.0" encoding="utf-8"?>
<!-- Generator: Adobe Illustrator 18.1.1, SVG Export Plug-In . SVG Version: 6.00 Build 0)  -->
<svg version="1.1" id="图层_1" xmlns="http://www.w3.org/2000/svg" xmlns:xlink="http://www.w3.org/1999/xlink" x="0px" y="0px"
	 viewBox="0 0 25 25" enable-background="new 0 0 25 25" xml:space="preserve">
<path fill="#FFFFFF" d="M24.2,19.7L24.2,19.7l-7.4-7.4l7.4-7.3l0,0C24.3,5,24.3,5,24.3,4.8c0.1-0.3,0-0.7-0.1-0.8l-3.5-3.5
	c-0.3-0.3-0.5-0.3-0.8-0.1c-0.1,0-0.1,0.1-0.3,0.1l0,0l-7.4,7.4L5.1,0.6l0,0C5,0.5,4.9,0.5,4.9,0.4c-0.3-0.2-0.7,0-0.8,0.1L0.4,4.1
	C0.3,4.3,0.2,4.5,0.3,4.8c0,0.1,0.1,0.1,0.1,0.3l0,0l7.5,7.4l-7.4,7.4l0,0c-0.1,0.1-0.1,0.1-0.1,0.3c-0.1,0.3,0,0.7,0.1,0.8L4,24.4
	c0.3,0.1,0.6,0.1,0.9,0c0.1,0,0.1-0.1,0.3-0.1l0,0l7.4-7.4l7.4,7.4l0,0c0.1,0.1,0.1,0.1,0.3,0.1c0.3,0.1,0.7,0,0.8-0.1l3.5-3.5
	c0.3-0.3,0.3-0.5,0.1-0.8C24.3,20,24.3,19.8,24.2,19.7L24.2,19.7z"/>
</svg>
