<?xml version="1.0" encoding="utf-8"?>
<!-- Generator: Adobe Illustrator 18.1.1, SVG Export Plug-In . SVG Version: 6.00 Build 0)  -->
<svg version="1.1" id="图层_1" xmlns="http://www.w3.org/2000/svg" xmlns:xlink="http://www.w3.org/1999/xlink" x="0px" y="0px"
	 viewBox="0 0 36 36" enable-background="new 0 0 36 36" xml:space="preserve">
<path id="notification" fill="#FFFFFF" d="M22.5,27.9c0,0.6-0.4,1-1,1h-7.1c-0.6,0-1-0.4-1-1l0,0c0-0.6,0.4-1,1-1h7.1
	C22,26.9,22.5,27.4,22.5,27.9L22.5,27.9z M22.5,31.1c0,0.6-0.4,1-1,1h-7.1c-0.6,0-1-0.4-1-1l0,0c0-0.6,0.4-1,1-1h7.1
	C22,30.1,22.5,30.5,22.5,31.1L22.5,31.1z M14.8,33.3h6L19.2,35h-2.6L14.8,33.3z M17.9,1.3c-5.6,0-10.2,4.6-10.2,10.2
	c0,2.3,0.7,4.5,2,6.2C11.2,20,13,22,13,25.6h2.4c0.1-2.3-0.9-5.2-2.9-7.8c-1.3-1.9-2.9-3.7-2.9-6.2c0-4.6,3.7-8.2,8.2-8.2
	c4.6,0,8.2,3.7,8.2,8.2c0,2.4-1.4,4.3-2.9,6.2c-1.9,2.6-2.9,5.5-2.9,7.8h2.4c0-3.6,1.6-5.8,3.2-7.8c1.3-1.7,2-3.9,2-6.2
	C28.2,5.9,23.6,1.3,17.9,1.3z"/>
</svg>
