<?xml version="1.0" encoding="utf-8"?>
<!-- Generator: Adobe Illustrator 18.1.1, SVG Export Plug-In . SVG Version: 6.00 Build 0)  -->
<svg version="1.1" id="图层_1" xmlns="http://www.w3.org/2000/svg" xmlns:xlink="http://www.w3.org/1999/xlink" x="0px" y="0px"
	 viewBox="0 0 36 36" enable-background="new 0 0 36 36" xml:space="preserve">
<path id="error" fill="#FFFFFF" d="M18,4c-3.7,0-7.2,1.4-9.9,4.2s-4,6-4,9.8s1.4,7.2,4.2,9.9c2.6,2.6,6.2,4.2,9.9,4.2
	s7.2-1.4,9.9-4.2c2.6-2.6,4.2-6.2,4.2-9.9s-1.4-7.2-4.2-9.9S21.7,4,18,4z M18,0.7L18,0.7c9.5,0,17.3,7.8,17.3,17.3
	S27.5,35.3,18,35.3S0.7,27.5,0.7,18S8.5,0.7,18,0.7z M15.8,24.5h4.3v4.3h-4.3V24.5z M15.8,7.2h4.3v13h-4.3V7.2z"/>
</svg>
